<?xml version="1.0" standalone="no"?>
<!DOCTYPE svg PUBLIC "-//W3C//DTD SVG 20010904//EN" "http://www.w3.org/TR/2001/REC-SVG-20010904/DTD/svg10.dtd">
<svg version="1.0" xmlns="http://www.w3.org/2000/svg"
 width="512.000000pt" height="512.000000pt" viewBox="0 0 512.000000 512.000000"
 preserveAspectRatio="xMidYMid meet">

<g transform="translate(0.000000,512.000000) scale(0.100000,-0.100000)"
fill="currentColor" stroke="none">
<path d="M2135 5106 c-68 -21 -120 -53 -158 -95 -78 -86 -97 -161 -97 -378 l0
-143 -37 -17 c-217 -94 -365 -179 -518 -298 l-80 -62 -210 123 c-115 67 -234
130 -263 140 -115 36 -272 -9 -346 -99 -35 -43 -361 -604 -399 -687 -15 -34
-21 -67 -21 -130 -1 -74 3 -93 27 -142 44 -90 96 -132 321 -263 162 -94 206
-123 206 -140 0 -11 -7 -69 -15 -130 -8 -60 -15 -162 -15 -225 0 -63 7 -164
15 -225 8 -60 15 -119 15 -130 0 -17 -44 -46 -206 -140 -225 -131 -277 -173
-321 -263 -23 -48 -28 -70 -28 -137 0 -46 6 -95 14 -115 35 -86 379 -675 419
-717 83 -87 222 -124 334 -89 29 10 148 73 263 140 l210 123 80 -62 c153 -119
301 -204 518 -298 l37 -17 0 -143 c0 -213 19 -289 92 -373 42 -48 93 -79 161
-99 47 -14 111 -15 449 -13 l393 3 62 29 c68 31 129 89 161 153 30 59 42 142
42 300 l0 143 38 17 c217 95 383 191 526 305 l69 56 106 -62 c58 -34 153 -90
211 -123 135 -79 191 -97 276 -90 86 6 181 53 228 110 38 48 376 631 403 698
12 30 18 70 18 124 0 67 -5 89 -28 137 -44 90 -96 132 -321 263 -162 94 -206
123 -206 140 0 11 7 70 15 130 8 61 15 162 15 225 0 63 -7 165 -15 225 -8 61
-15 119 -15 130 0 17 44 46 206 140 225 131 277 173 321 263 24 49 28 68 27
142 0 63 -6 96 -21 130 -38 83 -364 644 -399 687 -74 90 -231 135 -346 99 -29
-10 -148 -73 -263 -140 l-210 -123 -80 62 c-153 119 -301 204 -517 298 l-38
17 0 143 c0 222 -25 311 -107 388 -103 96 -121 99 -577 98 -278 0 -392 -4
-421 -13z m689 -360 c68 -51 76 -83 76 -313 l0 -201 33 -7 c17 -4 87 -25 154
-46 253 -82 515 -247 688 -434 l50 -55 249 145 c137 80 264 147 282 151 40 7
95 -10 133 -42 34 -29 218 -345 227 -391 10 -49 -4 -100 -37 -137 -17 -20
-129 -92 -273 -176 l-244 -142 19 -61 c48 -158 64 -274 64 -477 0 -203 -16
-319 -64 -477 l-19 -61 244 -142 c143 -84 256 -156 273 -175 32 -36 48 -105
36 -147 -14 -47 -199 -360 -227 -383 -43 -36 -100 -51 -145 -37 -21 6 -146 74
-278 151 l-239 140 -66 -68 c-185 -191 -430 -343 -685 -424 -60 -19 -125 -38
-142 -42 l-33 -7 0 -201 c0 -230 -8 -262 -76 -313 l-37 -29 -227 0 -227 0 -37
29 c-68 51 -76 83 -76 313 l0 201 -32 7 c-81 17 -262 81 -354 125 -176 85
-367 223 -489 355 l-50 55 -249 -145 c-137 -80 -265 -148 -283 -151 -43 -8
-111 17 -145 54 -27 29 -201 332 -213 370 -12 42 4 111 36 147 18 20 128 90
273 175 l244 141 -19 62 c-48 158 -64 274 -64 477 0 203 16 319 64 477 l19 62
-237 137 c-130 75 -251 151 -269 167 -36 35 -57 95 -49 144 8 45 193 368 229
398 43 36 100 51 146 37 20 -6 145 -74 277 -151 l240 -140 65 67 c183 191 429
343 685 425 61 19 125 38 143 42 l32 7 0 201 c0 176 3 207 19 243 19 42 69 88
106 97 11 3 115 5 231 4 l211 -2 37 -29z"/>
<path d="M2430 3404 c-391 -76 -671 -374 -709 -757 -35 -349 141 -679 449
-841 136 -72 218 -91 390 -91 172 0 254 19 390 91 603 318 603 1190 0 1508
-126 66 -210 87 -365 91 -71 2 -141 1 -155 -1z m255 -349 c248 -65 418 -323
375 -573 -50 -297 -341 -491 -625 -416 -245 63 -414 317 -376 564 45 300 339
499 626 425z"/>
</g>
</svg>
