<svg xmlns="http://www.w3.org/2000/svg">
<style> :root svg:not(:target) { display: none } </style>
<svg id="icn-arrow" viewBox="0 0 8 12" fill="none">
  <path fill-rule="evenodd" clip-rule="evenodd" d="M4.76837e-07 1.4L1.51351 0L8 6L1.51351 12L4.76837e-07 10.6L4.97297 6L4.76837e-07 1.4Z" fill="currentColor"/>
</svg>


<svg id="icn-theme-auto" viewBox="0 0 512.000000 512.000000"
 preserveAspectRatio="xMidYMid meet">

<g transform="translate(0.000000,512.000000) scale(0.100000,-0.100000)"
fill="currentColor" stroke="none">
<path d="M2135 5106 c-68 -21 -120 -53 -158 -95 -78 -86 -97 -161 -97 -378 l0
-143 -37 -17 c-217 -94 -365 -179 -518 -298 l-80 -62 -210 123 c-115 67 -234
130 -263 140 -115 36 -272 -9 -346 -99 -35 -43 -361 -604 -399 -687 -15 -34
-21 -67 -21 -130 -1 -74 3 -93 27 -142 44 -90 96 -132 321 -263 162 -94 206
-123 206 -140 0 -11 -7 -69 -15 -130 -8 -60 -15 -162 -15 -225 0 -63 7 -164
15 -225 8 -60 15 -119 15 -130 0 -17 -44 -46 -206 -140 -225 -131 -277 -173
-321 -263 -23 -48 -28 -70 -28 -137 0 -46 6 -95 14 -115 35 -86 379 -675 419
-717 83 -87 222 -124 334 -89 29 10 148 73 263 140 l210 123 80 -62 c153 -119
301 -204 518 -298 l37 -17 0 -143 c0 -213 19 -289 92 -373 42 -48 93 -79 161
-99 47 -14 111 -15 449 -13 l393 3 62 29 c68 31 129 89 161 153 30 59 42 142
42 300 l0 143 38 17 c217 95 383 191 526 305 l69 56 106 -62 c58 -34 153 -90
211 -123 135 -79 191 -97 276 -90 86 6 181 53 228 110 38 48 376 631 403 698
12 30 18 70 18 124 0 67 -5 89 -28 137 -44 90 -96 132 -321 263 -162 94 -206
123 -206 140 0 11 7 70 15 130 8 61 15 162 15 225 0 63 -7 165 -15 225 -8 61
-15 119 -15 130 0 17 44 46 206 140 225 131 277 173 321 263 24 49 28 68 27
142 0 63 -6 96 -21 130 -38 83 -364 644 -399 687 -74 90 -231 135 -346 99 -29
-10 -148 -73 -263 -140 l-210 -123 -80 62 c-153 119 -301 204 -517 298 l-38
17 0 143 c0 222 -25 311 -107 388 -103 96 -121 99 -577 98 -278 0 -392 -4
-421 -13z m689 -360 c68 -51 76 -83 76 -313 l0 -201 33 -7 c17 -4 87 -25 154
-46 253 -82 515 -247 688 -434 l50 -55 249 145 c137 80 264 147 282 151 40 7
95 -10 133 -42 34 -29 218 -345 227 -391 10 -49 -4 -100 -37 -137 -17 -20
-129 -92 -273 -176 l-244 -142 19 -61 c48 -158 64 -274 64 -477 0 -203 -16
-319 -64 -477 l-19 -61 244 -142 c143 -84 256 -156 273 -175 32 -36 48 -105
36 -147 -14 -47 -199 -360 -227 -383 -43 -36 -100 -51 -145 -37 -21 6 -146 74
-278 151 l-239 140 -66 -68 c-185 -191 -430 -343 -685 -424 -60 -19 -125 -38
-142 -42 l-33 -7 0 -201 c0 -230 -8 -262 -76 -313 l-37 -29 -227 0 -227 0 -37
29 c-68 51 -76 83 -76 313 l0 201 -32 7 c-81 17 -262 81 -354 125 -176 85
-367 223 -489 355 l-50 55 -249 -145 c-137 -80 -265 -148 -283 -151 -43 -8
-111 17 -145 54 -27 29 -201 332 -213 370 -12 42 4 111 36 147 18 20 128 90
273 175 l244 141 -19 62 c-48 158 -64 274 -64 477 0 203 16 319 64 477 l19 62
-237 137 c-130 75 -251 151 -269 167 -36 35 -57 95 -49 144 8 45 193 368 229
398 43 36 100 51 146 37 20 -6 145 -74 277 -151 l240 -140 65 67 c183 191 429
343 685 425 61 19 125 38 143 42 l32 7 0 201 c0 176 3 207 19 243 19 42 69 88
106 97 11 3 115 5 231 4 l211 -2 37 -29z"/>
<path d="M2430 3404 c-391 -76 -671 -374 -709 -757 -35 -349 141 -679 449
-841 136 -72 218 -91 390 -91 172 0 254 19 390 91 603 318 603 1190 0 1508
-126 66 -210 87 -365 91 -71 2 -141 1 -155 -1z m255 -349 c248 -65 418 -323
375 -573 -50 -297 -341 -491 -625 -416 -245 63 -414 317 -376 564 45 300 339
499 626 425z"/>
</g>
</svg>
<svg id="icn-theme-dark" viewBox="0 0 24 24" fill="none">
  <path d="M21.0672 11.8568L20.4253 11.469L21.0672 11.8568ZM12.1432 2.93276L11.7553 2.29085V2.29085L12.1432 2.93276ZM21.25 12C21.25 17.1086 17.1086 21.25 12 21.25V22.75C17.9371 22.75 22.75 17.9371 22.75 12H21.25ZM12 21.25C6.89137 21.25 2.75 17.1086 2.75 12H1.25C1.25 17.9371 6.06294 22.75 12 22.75V21.25ZM2.75 12C2.75 6.89137 6.89137 2.75 12 2.75V1.25C6.06294 1.25 1.25 6.06294 1.25 12H2.75ZM15.5 14.25C12.3244 14.25 9.75 11.6756 9.75 8.5H8.25C8.25 12.5041 11.4959 15.75 15.5 15.75V14.25ZM20.4253 11.469C19.4172 13.1373 17.5882 14.25 15.5 14.25V15.75C18.1349 15.75 20.4407 14.3439 21.7092 12.2447L20.4253 11.469ZM9.75 8.5C9.75 6.41182 10.8627 4.5828 12.531 3.57467L11.7553 2.29085C9.65609 3.5593 8.25 5.86509 8.25 8.5H9.75ZM12 2.75C11.9115 2.75 11.8077 2.71008 11.7324 2.63168C11.6686 2.56527 11.6538 2.50244 11.6503 2.47703C11.6461 2.44587 11.6482 2.35557 11.7553 2.29085L12.531 3.57467C13.0342 3.27065 13.196 2.71398 13.1368 2.27627C13.0754 1.82126 12.7166 1.25 12 1.25V2.75ZM21.7092 12.2447C21.6444 12.3518 21.5541 12.3539 21.523 12.3497C21.4976 12.3462 21.4347 12.3314 21.3683 12.2676C21.2899 12.1923 21.25 12.0885 21.25 12H22.75C22.75 11.2834 22.1787 10.9246 21.7237 10.8632C21.286 10.804 20.7293 10.9658 20.4253 11.469L21.7092 12.2447Z" fill="currentColor"/>
</svg>
<svg id="icn-theme-light" viewBox="0 0 24 24" fill="none">
  <path fill-rule="evenodd" clip-rule="evenodd" d="M12 1.25C12.4142 1.25 12.75 1.58579 12.75 2V3C12.75 3.41421 12.4142 3.75 12 3.75C11.5858 3.75 11.25 3.41421 11.25 3V2C11.25 1.58579 11.5858 1.25 12 1.25ZM4.39861 4.39861C4.6915 4.10572 5.16638 4.10572 5.45927 4.39861L5.85211 4.79145C6.145 5.08434 6.145 5.55921 5.85211 5.85211C5.55921 6.145 5.08434 6.145 4.79145 5.85211L4.39861 5.45927C4.10572 5.16638 4.10572 4.6915 4.39861 4.39861ZM19.6011 4.39887C19.894 4.69176 19.894 5.16664 19.6011 5.45953L19.2083 5.85237C18.9154 6.14526 18.4405 6.14526 18.1476 5.85237C17.8547 5.55947 17.8547 5.0846 18.1476 4.79171L18.5405 4.39887C18.8334 4.10598 19.3082 4.10598 19.6011 4.39887ZM12 6.75C9.1005 6.75 6.75 9.1005 6.75 12C6.75 14.8995 9.1005 17.25 12 17.25C14.8995 17.25 17.25 14.8995 17.25 12C17.25 9.1005 14.8995 6.75 12 6.75ZM5.25 12C5.25 8.27208 8.27208 5.25 12 5.25C15.7279 5.25 18.75 8.27208 18.75 12C18.75 15.7279 15.7279 18.75 12 18.75C8.27208 18.75 5.25 15.7279 5.25 12ZM1.25 12C1.25 11.5858 1.58579 11.25 2 11.25H3C3.41421 11.25 3.75 11.5858 3.75 12C3.75 12.4142 3.41421 12.75 3 12.75H2C1.58579 12.75 1.25 12.4142 1.25 12ZM20.25 12C20.25 11.5858 20.5858 11.25 21 11.25H22C22.4142 11.25 22.75 11.5858 22.75 12C22.75 12.4142 22.4142 12.75 22 12.75H21C20.5858 12.75 20.25 12.4142 20.25 12ZM18.1476 18.1476C18.4405 17.8547 18.9154 17.8547 19.2083 18.1476L19.6011 18.5405C19.894 18.8334 19.894 19.3082 19.6011 19.6011C19.3082 19.894 18.8334 19.894 18.5405 19.6011L18.1476 19.2083C17.8547 18.9154 17.8547 18.4405 18.1476 18.1476ZM5.85211 18.1479C6.145 18.4408 6.145 18.9157 5.85211 19.2086L5.45927 19.6014C5.16638 19.8943 4.6915 19.8943 4.39861 19.6014C4.10572 19.3085 4.10572 18.8336 4.39861 18.5407L4.79145 18.1479C5.08434 17.855 5.55921 17.855 5.85211 18.1479ZM12 20.25C12.4142 20.25 12.75 20.5858 12.75 21V22C12.75 22.4142 12.4142 22.75 12 22.75C11.5858 22.75 11.25 22.4142 11.25 22V21C11.25 20.5858 11.5858 20.25 12 20.25Z" fill="currentColor"/>
</svg>
</svg>